<svg xmlns="http://www.w3.org/2000/svg" width="30" height="30" fill="none"><path fill="#E6E6E6" d="M10.832 15a4.168 4.168 0 0 1 8.338 0 4.168 4.168 0 0 1-8.338 0zm-2.254 0a6.42 6.42 0 0 0 6.423 6.418A6.42 6.42 0 0 0 21.423 15 6.42 6.42 0 0 0 15 8.58 6.42 6.42 0 0 0 8.578 15zm11.598-6.673a1.5 1.5 0 1 0 1.502-1.5 1.502 1.502 0 0 0-1.502 1.5zM9.948 25.174c-1.22-.055-1.883-.258-2.323-.43-.584-.227-1-.498-1.439-.935a3.857 3.857 0 0 1-.935-1.437c-.172-.44-.375-1.102-.43-2.32-.061-1.318-.073-1.714-.073-5.052 0-3.338.013-3.733.073-5.052.055-1.218.26-1.88.43-2.32.227-.584.498-1 .935-1.439a3.855 3.855 0 0 1 1.439-.935c.44-.171 1.103-.374 2.323-.43 1.318-.06 1.714-.072 5.053-.072 3.338 0 3.734.013 5.054.072 1.22.056 1.881.26 2.323.43.584.227 1 .498 1.438.935.438.438.708.855.936 1.438.171.44.375 1.103.43 2.321.06 1.32.073 1.714.073 5.052 0 3.338-.012 3.733-.073 5.051-.055 1.219-.26 1.881-.43 2.321-.228.584-.498 1-.936 1.437a3.887 3.887 0 0 1-1.438.935c-.44.172-1.104.375-2.323.43-1.318.06-1.714.073-5.054.073-3.34 0-3.735-.012-5.053-.073zM9.844 2.576c-1.331.06-2.241.271-3.036.58a6.13 6.13 0 0 0-2.215 1.442A6.107 6.107 0 0 0 3.15 6.812c-.31.795-.52 1.704-.58 3.034-.062 1.333-.077 1.76-.077 5.154s.015 3.82.076 5.153c.06 1.33.272 2.24.581 3.034a6.11 6.11 0 0 0 1.443 2.214 6.15 6.15 0 0 0 2.215 1.442c.796.309 1.705.52 3.036.58 1.334.061 1.76.076 5.157.076 3.396 0 3.822-.014 5.156-.075 1.332-.061 2.24-.272 3.036-.581a6.151 6.151 0 0 0 2.215-1.442 6.122 6.122 0 0 0 1.443-2.214c.31-.795.521-1.703.581-3.034.06-1.334.075-1.759.075-5.153 0-3.395-.014-3.82-.075-5.154-.06-1.33-.272-2.24-.581-3.034a6.145 6.145 0 0 0-1.443-2.214 6.12 6.12 0 0 0-2.214-1.442c-.796-.309-1.706-.52-3.036-.58-1.334-.06-1.76-.076-5.156-.076-3.397 0-3.824.014-5.158.076z"/><path fill="#E6E6E6" d="M10.832 15a4.168 4.168 0 0 1 8.338 0 4.168 4.168 0 0 1-8.338 0zm-2.254 0a6.42 6.42 0 0 0 6.423 6.418A6.42 6.42 0 0 0 21.423 15 6.42 6.42 0 0 0 15 8.58 6.42 6.42 0 0 0 8.578 15zm11.598-6.673a1.5 1.5 0 1 0 1.502-1.5 1.502 1.502 0 0 0-1.502 1.5zM9.948 25.174c-1.22-.055-1.883-.258-2.323-.43-.584-.227-1-.498-1.439-.935a3.857 3.857 0 0 1-.935-1.437c-.172-.44-.375-1.102-.43-2.32-.061-1.318-.073-1.714-.073-5.052 0-3.338.013-3.733.073-5.052.055-1.218.26-1.88.43-2.32.227-.584.498-1 .935-1.439a3.855 3.855 0 0 1 1.439-.935c.44-.171 1.103-.374 2.323-.43 1.318-.06 1.714-.072 5.053-.072 3.338 0 3.734.013 5.054.072 1.22.056 1.881.26 2.323.43.584.227 1 .498 1.438.935.438.438.708.855.936 1.438.171.44.375 1.103.43 2.321.06 1.32.073 1.714.073 5.052 0 3.338-.012 3.733-.073 5.051-.055 1.219-.26 1.881-.43 2.321-.228.584-.498 1-.936 1.437a3.887 3.887 0 0 1-1.438.935c-.44.172-1.104.375-2.323.43-1.318.06-1.714.073-5.054.073-3.34 0-3.735-.012-5.053-.073zM9.844 2.576c-1.331.06-2.241.271-3.036.58a6.13 6.13 0 0 0-2.215 1.442A6.107 6.107 0 0 0 3.15 6.812c-.31.795-.52 1.704-.58 3.034-.062 1.333-.077 1.76-.077 5.154s.015 3.82.076 5.153c.06 1.33.272 2.24.581 3.034a6.11 6.11 0 0 0 1.443 2.214 6.15 6.15 0 0 0 2.215 1.442c.796.309 1.705.52 3.036.58 1.334.061 1.76.076 5.157.076 3.396 0 3.822-.014 5.156-.075 1.332-.061 2.24-.272 3.036-.581a6.151 6.151 0 0 0 2.215-1.442 6.122 6.122 0 0 0 1.443-2.214c.31-.795.521-1.703.581-3.034.06-1.334.075-1.759.075-5.153 0-3.395-.014-3.82-.075-5.154-.06-1.33-.272-2.24-.581-3.034a6.145 6.145 0 0 0-1.443-2.214 6.12 6.12 0 0 0-2.214-1.442c-.796-.309-1.706-.52-3.036-.58-1.334-.06-1.76-.076-5.156-.076-3.397 0-3.824.014-5.158.076z"/></svg>