<svg xmlns="http://www.w3.org/2000/svg" width="24" height="25" fill="none"><path fill="#E94B30" d="M10.31 17.68c.767-.877 1.151-1.315 1.625-1.343a.94.94 0 0 1 .13 0c.474.028.858.466 1.625 1.342 1.67 1.906 2.505 2.858 2.271 3.68-.02.071-.045.14-.074.206-.344.77-1.525.77-3.887.77s-3.543 0-3.887-.77a1.532 1.532 0 0 1-.074-.206c-.234-.822.6-1.774 2.27-3.68zm4.19-4.845a2.5 2.5 0 1 1-5 0 2.5 2.5 0 0 1 5 0z"/><path fill="#E94B30" fill-rule="evenodd" d="M12 8.37c-2.697 0-4.884 2.15-4.884 4.805a4.75 4.75 0 0 0 1.43 3.398.679.679 0 0 1 0 .971.706.706 0 0 1-.986 0 6.113 6.113 0 0 1-1.84-4.369c0-3.412 2.812-6.179 6.28-6.179 3.468 0 6.279 2.767 6.279 6.18a6.112 6.112 0 0 1-1.84 4.368.705.705 0 0 1-.986 0 .679.679 0 0 1 0-.97 4.75 4.75 0 0 0 1.43-3.399c0-2.654-2.186-4.806-4.883-4.806z" clip-rule="evenodd" opacity=".7"/><path fill="#E94B30" fill-rule="evenodd" d="M12 4.708c-4.752 0-8.605 3.791-8.605 8.467 0 2.339.963 4.455 2.52 5.988a.679.679 0 0 1 0 .97.706.706 0 0 1-.986 0A9.734 9.734 0 0 1 2 13.177C2 7.74 6.477 3.335 12 3.335s10 4.406 10 9.84a9.734 9.734 0 0 1-2.929 6.959.706.706 0 0 1-.987 0 .679.679 0 0 1 0-.971 8.372 8.372 0 0 0 2.52-5.988c0-4.676-3.852-8.467-8.604-8.467z" clip-rule="evenodd" opacity=".4"/></svg>