<svg xmlns="http://www.w3.org/2000/svg" width="25" height="25" fill="none"><path fill="#E94B30" fill-rule="evenodd" d="M12.166 2.335c-4.133 0-6.2 0-6.802 1.3a2.519 2.519 0 0 0-.13.346c-.41 1.387 1.052 2.995 3.974 6.21l1.958 2.144h2l1.958-2.143c2.922-3.216 4.383-4.824 3.974-6.21a2.533 2.533 0 0 0-.13-.348c-.602-1.299-2.669-1.299-6.802-1.299zm-2 2.75a.75.75 0 0 0 0 1.5h4a.75.75 0 0 0 0-1.5h-4z" clip-rule="evenodd"/><path fill="#E94B30" d="M5.364 21.036c.602 1.299 2.669 1.299 6.802 1.299 4.133 0 6.2 0 6.802-1.3a2.39 2.39 0 0 0 .13-.346c.41-1.387-1.052-2.995-3.974-6.21l-1.958-2.144h-2l-1.958 2.143c-2.922 3.216-4.383 4.824-3.974 6.21.035.12.079.236.13.348z" opacity=".5"/><path fill="#E94B30" d="M10.166 18.085a.75.75 0 1 0 0 1.5h4a.75.75 0 0 0 0-1.5h-4z"/></svg>