<svg xmlns="http://www.w3.org/2000/svg" width="24" height="24" fill="none"><path fill="#E63719" d="M8.422 20.619C10.178 21.539 11.056 22 12 22V12L2.638 7.073a3.195 3.195 0 0 0-.04.067C2 8.155 2 9.417 2 11.942v.117c0 2.525 0 3.787.597 4.802.598 1.014 1.674 1.579 3.825 2.708l2 1.05z"/><path fill="#E63719" d="m17.578 4.432-2-1.05C13.823 2.461 12.945 2 12.001 2c-.945 0-1.822.46-3.578 1.382l-2 1.05C4.319 5.536 3.243 6.1 2.639 7.072L12 12l9.362-4.927c-.606-.973-1.68-1.537-3.785-2.641z" opacity=".7"/><path fill="#E63719" d="M21.403 7.14a3.152 3.152 0 0 0-.041-.067L12 12.001v10c.944 0 1.822-.461 3.578-1.382l2-1.05c2.151-1.13 3.227-1.694 3.825-2.708.597-1.015.597-2.277.597-4.802v-.117c0-2.525 0-3.787-.597-4.802z" opacity=".5"/><path fill="#E63719" d="m6.323 4.483.1-.052 1.493-.784 9.1 5.006 4.025-2.012a3.262 3.262 0 0 1 .708 1.323l-3.999 2V13a.75.75 0 0 1-1.5 0v-2.287l-3.5 1.75v9.44A3.062 3.062 0 0 1 12 22c-.248 0-.493-.032-.75-.096v-9.44l-8.998-4.5c.084-.301.196-.57.346-.825.105-.178.224-.342.362-.498l9.04 4.52 3.386-1.693-9.063-4.985z"/></svg>