<svg xmlns="http://www.w3.org/2000/svg" width="20" height="20" fill="none"><path fill="#E6E6E6" d="M4.583 13.333V6.667a2.5 2.5 0 0 0-2.5-2.5.417.417 0 0 0-.416.416v10.834c0 .23.186.416.416.416a2.5 2.5 0 0 0 2.5-2.5zm5.834-9.166c1.571 0 2.357 0 2.845.488s.488 1.274.488 2.845v5c0 1.571 0 2.357-.488 2.845s-1.274.488-2.845.488h-.834c-1.571 0-2.357 0-2.845-.488S6.25 14.071 6.25 12.5v-5c0-1.571 0-2.357.488-2.845s1.274-.488 2.845-.488h.834zm5 2.5v6.666a2.5 2.5 0 0 0 2.5 2.5c.23 0 .416-.186.416-.416V4.583a.417.417 0 0 0-.416-.416 2.5 2.5 0 0 0-2.5 2.5z"/></svg>