<svg xmlns="http://www.w3.org/2000/svg" width="30" height="30" fill="none"><path fill="#E6E6E6" d="M12.73 17.592c-.767.831-1.507 1.63-2.247 2.433-2.066 2.246-4.132 4.491-6.192 6.742a.65.65 0 0 1-.543.233c-.553-.017-1.107-.006-1.743-.006 3.31-3.587 6.56-7.113 9.82-10.644C8.556 11.91 5.3 7.49 2 3.017h.35c2.182 0 4.368.005 6.55-.006.235 0 .378.067.52.26 2.11 2.861 4.236 5.722 6.351 8.577.028.033.06.067.104.116.466-.498.916-.992 1.37-1.48C19.4 8.14 21.564 5.811 23.701 3.46c.301-.327.586-.493 1.03-.454.444.038.888.01 1.409.01-3.146 3.421-6.248 6.792-9.366 10.18 3.403 4.584 6.801 9.162 10.226 13.78-.126.006-.214.017-.301.017-2.258 0-4.51 0-6.768.006a.477.477 0 0 1-.433-.216c-2.192-2.989-4.39-5.971-6.587-8.954-.05-.072-.104-.139-.181-.238zM5.113 4.563c.082.111.115.167.153.217 1.48 1.99 2.96 3.98 4.444 5.97 3.573 4.802 7.146 9.597 10.714 14.398a.434.434 0 0 0 .389.194c.948-.005 1.902-.005 2.85-.005.076 0 .159-.012.268-.017-.055-.089-.088-.15-.131-.205-3.036-4.097-6.067-8.194-9.103-12.297-1.989-2.688-3.984-5.377-5.973-8.066a.419.419 0 0 0-.384-.194c-.794.005-1.589.005-2.383.005h-.844z"/></svg>